<?xml version="1.0" encoding="UTF-8" standalone="no"?>
<!-- Created with Inkscape (http://www.inkscape.org/) -->

<svg
   xmlns:dc="http://purl.org/dc/elements/1.1/"
   xmlns:cc="http://creativecommons.org/ns#"
   xmlns:rdf="http://www.w3.org/1999/02/22-rdf-syntax-ns#"
   xmlns:svg="http://www.w3.org/2000/svg"
   xmlns="http://www.w3.org/2000/svg"
   xmlns:sodipodi="http://sodipodi.sourceforge.net/DTD/sodipodi-0.dtd"
   xmlns:inkscape="http://www.inkscape.org/namespaces/inkscape"
   width="100mm"
   height="100mm"
   viewBox="0 0 100 100"
   version="1.1"
   id="svg8"
   inkscape:version="0.92.4 5da689c313, 2019-01-14"
   sodipodi:docname="limbus_logo.svg">
  <defs
     id="defs2" />
  <sodipodi:namedview
     id="base"
     pagecolor="#ffffff"
     bordercolor="#666666"
     borderopacity="1.0"
     inkscape:pageopacity="0.0"
     inkscape:pageshadow="2"
     inkscape:zoom="0.175"
     inkscape:cx="47.393287"
     inkscape:cy="405.65047"
     inkscape:document-units="mm"
     inkscape:current-layer="layer1"
     showgrid="false"
     inkscape:window-width="960"
     inkscape:window-height="1017"
     inkscape:window-x="0"
     inkscape:window-y="26"
     inkscape:window-maximized="0"
     fit-margin-top="0"
     fit-margin-left="0"
     fit-margin-right="0"
     fit-margin-bottom="0" />
  <metadata
     id="metadata5">
    <rdf:RDF>
      <cc:Work
         rdf:about="">
        <dc:format>image/svg+xml</dc:format>
        <dc:type
           rdf:resource="http://purl.org/dc/dcmitype/StillImage" />
        <dc:title></dc:title>
      </cc:Work>
    </rdf:RDF>
  </metadata>
  <g
     inkscape:label="Layer 1"
     inkscape:groupmode="layer"
     id="layer1"
     transform="translate(-9.1256608,-9.792004)">
    <path
       sodipodi:type="star"
       id="path12"
       sodipodi:sides="5"
       sodipodi:cx="20.472878"
       sodipodi:cy="-26.930676"
       sodipodi:r1="33.741653"
       sodipodi:r2="27.297569"
       sodipodi:arg1="0.95423007"
       sodipodi:arg2="1.5825486"
       inkscape:flatsided="true"
       inkscape:rounded="0"
       inkscape:randomized="0"
       d="M 39.983553,0.59808613 0.32059967,0.13193478 -11.492591,-37.733824 20.86941,-60.669999 52.683416,-36.979575 Z"
       inkscape:transform-center-x="0.010476301"
       inkscape:transform-center-y="-5.267066"
       style="fill:#0083ff;fill-opacity:1;stroke-width:0.26458332"
       transform="matrix(1.5579877,-0.02030508,0.01931533,1.6378222,27.759817,109.58243)" />
    <path
       sodipodi:type="star"
       id="path12-3"
       sodipodi:sides="5"
       sodipodi:cx="20.472878"
       sodipodi:cy="-26.930676"
       sodipodi:r1="33.741653"
       sodipodi:r2="27.297569"
       sodipodi:arg1="0.95423007"
       sodipodi:arg2="1.5825486"
       inkscape:flatsided="true"
       inkscape:rounded="0"
       inkscape:randomized="0"
       d="M 39.983553,0.59808613 0.32059967,0.13193478 -11.492591,-37.733824 20.86941,-60.669999 52.683416,-36.979575 Z"
       inkscape:transform-center-x="0.0083808169"
       inkscape:transform-center-y="-4.2136468"
       style="fill:#ffffff;fill-opacity:1;stroke-width:0.26458332"
       transform="matrix(1.2463902,-0.01624406,0.01545226,1.3102577,33.48273,100.25052)" />
    <path
       style="fill:#0083ff;fill-opacity:1;stroke-width:0.10907052"
       d="m 87.609503,101.61228 c -2.001242,-0.57526 -2.250747,4.91337 -2.526445,2.95761 -0.231048,-1.63902 -5.670648,-2.65139 -2.330296,-9.565707 0.310963,-0.643674 0.593262,-1.172325 0.627316,-1.174768 0.06883,-0.0047 3.860298,0.12175 4.743518,2.07583 1.047891,2.318415 -0.153457,8.198825 -0.02677,9.175665 0.09402,0.725 -0.126313,-4.23682 -0.487322,-3.46863 -0.917937,1.95322 1.994604,0.57335 1.3e-5,0 z m -7.842254,-8.041348 c -0.27655,-0.07811 -0.69294,-0.29556 -0.925314,-0.483231 -0.232378,-0.187656 -1.91631,-1.844317 -3.742074,-3.68145 -3.038655,-3.057571 -3.350543,-3.340238 -3.685538,-3.340238 -0.554651,0 -1.644442,-0.310145 -2.193591,-0.62427 -0.298443,-0.170725 -3.626447,-3.423463 -8.516597,-8.324001 -4.414698,-4.424082 -8.075379,-8.060059 -8.134844,-8.07996 -0.05948,-0.01988 -0.562362,0.3273 -1.117544,0.771549 -1.160283,0.928443 -2.391023,1.760162 -2.954058,1.996317 -0.839055,0.351931 -0.723757,0.43645 -4.288292,-3.143305 -2.557299,-2.568223 -3.292337,-3.367262 -3.292269,-3.578955 1.08e-4,-0.361005 0.52283,-1.437239 1.061214,-2.184956 l 0.432773,-0.601051 -4.544996,-4.5898 C 34.86221,54.674047 33.171678,52.88405 32.880376,52.428463 32.637964,52.049333 32.306032,51.336446 32.142749,50.844254 31.885954,50.070195 31.846699,49.77964 31.852,48.692269 c 0.0056,-1.12868 0.04089,-1.351894 0.346389,-2.184899 0.778746,-2.123409 2.278698,-3.580427 4.35873,-4.233938 1.261024,-0.396195 2.847879,-0.41113 3.978911,-0.03747 1.689081,0.558053 1.825421,0.67124 6.807749,5.651819 2.546798,2.545905 4.66818,4.628916 4.714185,4.628916 0.046,0 0.376859,-0.199897 0.735239,-0.444207 0.824866,-0.562317 1.701445,-0.973999 2.076827,-0.975379 0.236973,-7.06e-4 0.901985,0.611835 3.581117,3.299428 3.631006,3.642468 3.499591,3.4518 3.0384,4.40817 -0.305389,0.633284 -1.384161,2.225782 -2.069843,3.055519 -0.29802,0.360631 -0.572976,0.721466 -0.611015,0.801868 -0.04525,0.09562 2.736962,2.967913 8.0449,8.30536 6.299435,6.33446 8.174436,8.28137 8.384014,8.705578 0.289273,0.585521 0.514753,1.485704 0.514753,2.055065 0,0.314294 0.349249,0.69981 3.385948,3.737502 1.862276,1.862876 3.562663,3.657519 3.778636,3.9881 0.361926,0.553972 0.392867,0.66523 0.395107,1.420648 0.0028,0.903428 -0.240756,1.532215 -0.792363,2.04674 -0.702852,0.655611 -1.808105,0.916541 -2.752435,0.649819 z m 1.9561,-1.060074 c 0.774455,-0.574367 1.049158,-1.777147 0.57825,-2.53188 -0.123989,-0.198737 -1.84425,-1.983876 -3.822786,-3.966982 l -3.59734,-3.605652 4.11e-4,-0.71095 c 0.0013,-1.517732 0.525941,-0.901363 -8.531993,-10.021009 l -8.161642,-8.217243 -2.478827,2.479986 -2.478824,2.479993 8.076647,8.103072 c 5.722104,5.740799 8.219462,8.175277 8.566525,8.350783 0.346658,0.175301 0.744465,0.261502 1.360754,0.294853 l 0.870885,0.0471 3.701251,3.692222 c 2.035688,2.03072 3.799226,3.748386 3.918971,3.817027 0.121336,0.06959 0.530994,0.11026 0.925313,0.09195 0.548502,-0.02546 0.789584,-0.09365 1.072278,-0.303304 z m -5.478053,-4.368503 -3.82001,-3.824835 h -0.844594 c -0.638402,0 -0.956475,-0.05587 -1.302906,-0.228653 -0.300972,-0.150146 -2.112104,-1.885201 -5.275391,-5.053788 -2.649391,-2.65383 -4.817072,-4.851049 -4.817072,-4.88271 0,-0.03161 0.165694,-0.147148 0.368207,-0.25663 0.666004,-0.360049 0.743187,-0.8947 0.431635,-2.989997 -0.202285,-1.360458 -0.112113,-2.188817 0.291354,-2.676503 l 0.206193,-0.24924 6.091125,6.11974 c 4.497899,4.519024 6.137914,6.23408 6.270019,6.55686 0.12046,0.294331 0.17137,0.698639 0.155846,1.237646 l -0.02305,0.800516 3.827081,3.847501 c 3.638889,3.658296 3.827087,3.867218 3.827087,4.248584 0,0.803402 -0.370585,1.176345 -1.168887,1.176345 -0.375937,0 -0.595835,-0.199467 -4.216633,-3.824836 z"
       id="path4569"
       inkscape:connector-curvature="0"
       sodipodi:nodetypes="csccscccccsscscccscccccccsccssccscccscsccccccccsccscccccccsccccccscssscccsccccssccc" />
  </g>
</svg>
