<svg xmlns="http://www.w3.org/2000/svg" xmlns:svg="http://www.w3.org/2000/svg" id="svg3441" width="300" height="61.3" version="1.1"><metadata id="metadata3506"/><defs id="defs3504"><filter style="color-interpolation-filters:sRGB" id="filter3508"><feColorMatrix id="feColorMatrix3510" values="0.21 0.72 0.072 0 0 0.21 0.72 0.072 0 0 0.21 0.72 0.072 0 0 0 0 0 1 0"/></filter></defs><desc id="desc3443">Logo of Aberystwyth University</desc><g id="g3445" style="filter:url(#filter3508)"><path id="path5636" fill="#373535" fill-rule="nonzero" d="m202.12251,51.78488l1.84282,0l0,5.21015c0,1.27999 0.04817,2.8316 2.44276,2.8316c2.40816,0 2.45633,-1.55159 2.45633,-2.8316l0,-5.21015l1.84294,0l0,5.26198c0,1.52568 -0.04942,4.22759 -4.29927,4.22759c-4.23631,0 -4.2856,-2.70193 -4.2856,-4.22759l0,-5.26198l0.00002,0z"/><path id="path5640" fill="#373535" fill-rule="nonzero" d="m213.65407,51.78488l2.11192,0l5.22003,6.92961l0.0247,0l0,-6.92961l1.7688,0l0,9.23042l-2.0762,0l-5.25581,-6.9296l-0.0247,0l0,6.9296l-1.76874,0l0,-9.23042z"/><path id="path5642" fill="#373535" fill-rule="nonzero" d="m226.37529,51.78704l1.84161,0l0,9.23042l-1.84161,0l0,-9.23042z"/><path id="path5646" fill="#373535" fill-rule="nonzero" d="m230.14546,51.78488l2.06262,0l2.86243,7.39497l2.79944,-7.39497l1.98978,0l-3.85608,9.23042l-1.95265,0l-3.90553,-9.23042l0.00002,0l-0.00002,0z"/><path id="path5650" fill="#373535" fill-rule="nonzero" d="m241.78778,51.78488l7.6147,0l0,1.44786l-5.77307,0l0,2.32802l5.5397,0l0,1.44665l-5.5397,0l0,2.56l5.87045,0l0,1.44792l-7.71208,0l0,-9.23042l0,-0.00001l0,-0.00001l0,-0.00001z"/><path id="path5654" fill="#373535" fill-rule="nonzero" d="m257.71353,55.92191c1.01965,0 1.57257,-0.32343 1.57257,-1.35655c0,-0.95663 -0.60236,-1.3331 -1.57257,-1.3331l-3.18083,0l0,2.68964l3.18083,0l0,0.00001zm-5.02246,-4.1375l5.55081,0c2.23541,0 2.95996,1.07387 2.95996,2.50945c0,1.20224 -0.62701,1.95148 -1.44913,2.223l0,0.02592c1.04306,0.23204 1.27631,1.18869 1.27631,2.4946c0,0.43943 0.01364,1.47504 0.36908,1.9774l-1.98972,0c-0.13467,-0.25667 -0.22098,-0.72332 -0.22098,-1.39602c0,-1.31827 -0.17154,-2.249 -1.52316,-2.249l-3.13153,0l0,3.645l-1.84163,0l0,-9.23035l0,-0.00002l0,0.00001l-0.00003,0l0.00002,0.00001z"/><path id="path5658" fill="#373535" fill-rule="nonzero" d="m267.90396,51.52708c1.35028,0 4.05234,0.25795 4.28558,2.93405l-1.98856,0c-0.06177,-0.71097 -0.67639,-1.48619 -2.21194,-1.48619c-1.22687,0 -2.03784,0.39996 -2.03784,1.26643c0,2.17124 6.53329,0.09011 6.53329,4.03383c0,2.37857 -2.34528,2.99943 -4.21277,2.99943c-3.15613,0 -4.42148,-1.30591 -4.44617,-3.24504l1.99109,0c0.0481,1.21461 1.00711,1.7972 2.51682,1.7972c1.11838,0 2.16248,-0.34935 2.16248,-1.35775c0,-2.28847 -6.46039,-0.29751 -6.46039,-4.08567c0,-2.05522 1.73169,-2.85628 3.86841,-2.85628"/><path id="path5660" fill="#373535" fill-rule="nonzero" d="m275.40448,51.78704l1.84161,0l0,9.23042l-1.84161,0l0,-9.23042z"/><path id="path5664" fill="#373535" fill-rule="nonzero" d="m282.66296,53.2328l-3.29074,0l0,-1.44785l8.42435,0l0,1.44785l-3.29074,0l0,7.7825l-1.84286,0l0,-7.7825z"/><path id="path5668" fill="#373535" fill-rule="nonzero" d="m292.77011,57.49912l-3.83142,-5.71379l2.24774,0l2.50436,4.11037l2.5058,-4.11037l2.24777,0l-3.83267,5.71379l0,3.51664l-1.84158,0l0,-3.51664z"/><path id="path5672" fill="#373535" fill-rule="nonzero" d="m80.43777,4.52536l2.96001,0c1.04424,0 1.60831,-0.29751 1.60831,-1.39602c0,-1.13806 -0.76162,-1.42201 -1.47379,-1.42201l-3.09454,0l0,2.81803zm-1.84283,-4.26587l5.40398,0c2.1489,0 2.85001,1.38245 2.85001,2.86986c0,1.40837 -0.84795,2.84386 -2.8253,2.84386l-3.58586,0l0,3.51663l-1.84283,0l0,-9.23035l0.00002,0l-0.00002,0z"/><path id="path5676" fill="#373535" fill-rule="nonzero" d="m94.4016,4.39615c1.01952,0 1.57253,-0.32343 1.57253,-1.35774c0,-0.95664 -0.60235,-1.3319 -1.57253,-1.3319l-3.18095,0l0,2.68965l3.18095,0l0,-0.00001zm-5.02258,-4.1375l5.55084,0c2.23544,0 2.95995,1.07387 2.95995,2.50816c0,1.20225 -0.62704,1.95276 -1.44913,2.22428l0,0.02592c1.04303,0.23205 1.27754,1.18869 1.27754,2.4946c0,0.43945 0.01241,1.47384 0.36784,1.97868l-1.98978,0c-0.13573,-0.25924 -0.22094,-0.72461 -0.22094,-1.39729c0,-1.31826 -0.17155,-2.249 -1.5231,-2.249l-3.13161,0l0,3.64629l-1.84161,0l0,-9.23163l0,-0.00001l-0.00001,0l0.00001,0z"/><path id="path5678" fill="#373535" fill-rule="nonzero" d="m101.76376,0.26202l1.84161,0l0,9.23042l-1.84161,0l0,-9.23042z"/><path id="path5682" fill="#373535" fill-rule="nonzero" d="m107.77563,0.25926l7.29491,0l0,1.44785l-5.45207,0l0,2.32674l5.15831,0l0,1.44792l-5.15831,0l0,4.00791l-1.84283,0l0,-9.23042z"/><path id="path5686" fill="#373535" fill-rule="nonzero" d="m120.26614,5.97328l-3.83139,-5.7138l2.24651,0l2.50562,4.11037l2.50575,-4.11037l2.24773,0l-3.8326,5.7138l0,3.51663l-1.84163,0l0,-3.51663z"/><path id="path5690" fill="#373535" fill-rule="nonzero" d="m131.38022,0.00062c1.35161,0 4.05359,0.25796 4.28564,2.93404l-1.98849,0c-0.06178,-0.71097 -0.67517,-1.48619 -2.21074,-1.48619c-1.2281,0 -2.03905,0.40118 -2.03905,1.26643c0,2.17245 6.53452,0.09138 6.53452,4.03383c0,2.37857 -2.34651,2.99944 -4.2128,2.99944c-3.15619,0 -4.42265,-1.30591 -4.44609,-3.24504l1.98976,0c0.04816,1.21581 1.00719,1.79719 2.51685,1.79719c1.1183,0 2.1613,-0.34935 2.1613,-1.35774c0,-2.28847 -6.45925,-0.29751 -6.45925,-4.08566c0,-2.05522 1.7317,-2.85629 3.86835,-2.85629"/><path id="path5694" fill="#373535" fill-rule="nonzero" d="m148.22751,9.4896l-1.08127,0l-0.25803,-1.20225c-0.71222,0.90473 -1.96507,1.4602 -3.34012,1.4602c-3.70918,0 -5.15825,-2.27484 -5.15825,-4.87317c0,-2.59827 1.53542,-4.87438 5.10889,-4.87438c2.66618,0 4.37201,1.42321 4.56833,3.23269l-1.98978,0c-0.33084,-1.25408 -1.43559,-1.78484 -2.62785,-1.78484c-2.27122,0 -3.14394,1.46149 -3.14394,3.49071c0,2.45633 1.49857,3.36114 3.04636,3.36114c1.87871,0 2.739,-0.90481 3.03282,-2.4292l-2.48103,0l0,-1.44912l4.32387,0l0,5.06822z"/><path id="path5698" fill="#373535" fill-rule="nonzero" d="m159.15749,4.8744c0,-2.02923 -1.17885,-3.42653 -3.2426,-3.42653c-2.06259,0 -3.24268,1.39729 -3.24268,3.42653c0,2.02923 1.1801,3.42653 3.24268,3.42653c2.06377,0 3.2426,-1.39729 3.2426,-3.42653m-8.39972,0c0,-2.59826 1.44916,-4.87317 5.15714,-4.87317c3.70914,0 5.15828,2.27491 5.15828,4.87317c0,2.59827 -1.44914,4.87317 -5.15828,4.87317c-3.70796,0 -5.15714,-2.27491 -5.15714,-4.87317"/><path id="path5702" fill="#373535" fill-rule="nonzero" d="m163.60376,0.25926l1.84167,0l0,7.70476l5.32985,0l0,1.52567l-7.17152,0l0,-9.23042l0,-0.00001z"/><path id="path5706" fill="#373535" fill-rule="nonzero" d="m81.02113,29.21215c0,2.55754 0,9.17849 0.03954,9.68459c0.1165,1.58983 0.01777,1.9774 1.06448,2.47982c0.9292,0.42709 2.26629,0.76283 2.8884,0.76283c2.24749,0 5.29869,-0.65303 5.29869,-4.88068c0,-4.22766 -2.65594,-5.92582 -3.75232,-6.44932c-1.09638,-0.5235 -1.95234,-0.39984 -2.76697,-0.55664c-0.4276,-0.07654 -2.03424,-0.07654 -2.57735,-0.07654c-0.11649,0 -0.19456,0.07654 -0.19456,0.23335l0.00006,-1.19742l0,0l0,0.00001l0.00002,0zm-0.00006,-0.62575c0,0.23077 0.07806,0.30987 0.23209,0.34807c0.19553,0.04079 0.71693,0.15555 1.99472,0.15555c1.90086,0 2.63948,-0.07902 3.33663,-0.85408c0.73862,-0.81476 1.41702,-1.93801 1.41702,-3.53031c0,-2.51925 -1.49495,-5.41094 -4.90868,-5.41094c-0.38609,0 -1.10204,0.03713 -1.64412,0.15434c-0.31105,0.079 -0.4276,0.15425 -0.4276,0.34809l-0.00006,8.78938l0,-0.0001l-0.00002,0l0.00002,0zm-2.94849,-0.53757c0,-5.12004 0,-6.04945 -0.07607,-7.09745c-0.07703,-1.12572 -0.27351,-1.74664 -1.39629,-1.90207c-0.27151,-0.0395 -0.85318,-0.07534 -1.16322,-0.07534c-0.11752,0 -0.27254,-0.079 -0.27254,-0.19374c0,-0.19384 0.15501,-0.37159 0.5431,-0.37159c1.55233,0 3.76426,0.079 3.95779,0.079c0.8127,0 2.30482,-0.079 3.89365,-0.079c5.70165,0 7.17697,3.19941 7.17697,4.94359c0,2.59705 -1.31349,4.49355 -3.05632,6.04636c2.59698,0.77634 5.61383,3.07046 5.61383,6.79442c0,3.68209 -2.6349,6.93001 -8.45505,6.93001c-0.62012,0 -1.76267,-0.03949 -2.8479,-0.11486c-1.08524,-0.04195 -2.05492,-0.0789 -2.20898,-0.0789c-0.07901,0 -0.7001,0.03695 -1.39924,0.03695c-0.69714,0.04195 -1.51183,0.07771 -2.05396,0.07771c-0.35052,0 -0.54406,-0.07771 -0.54406,-0.27146c0,-0.11603 0.07896,-0.19374 0.27152,-0.19374c0.31009,0 0.73963,-0.11613 1.04775,-0.15562c0.66062,-0.11722 0.73565,-0.8529 0.89169,-1.82191c0.19353,-1.35658 0.07733,-3.55402 0.07733,-6.73615l0,-5.81621l0,0l-0.00002,0.00001l0.00002,-0.00001z"/><path id="path5710" fill="#373535" fill-rule="nonzero" d="m99.23313,27.78796c0,-5.12005 0,-6.0495 -0.07768,-7.09745c-0.07653,-1.1257 -0.27031,-1.66882 -1.39484,-1.8219c-0.27158,-0.03948 -0.85415,-0.07896 -1.16528,-0.07896c-0.11475,0 -0.27031,-0.15429 -0.27031,-0.26911c0,-0.19506 0.15556,-0.2728 0.54311,-0.2728c1.55039,0 3.76105,0.07775 3.95609,0.07775c0.23206,0 7.36777,0.03707 8.14545,0c0.65791,-0.03827 1.27876,-0.15678 1.55161,-0.19626c0.1543,-0.03579 0.30859,-0.15429 0.46402,-0.15429c0.11736,0 0.1543,0.15429 0.1543,0.31228c0,0.23332 -0.19123,0.61966 -0.27026,1.55038c-0.03947,0.31099 -0.11607,1.78235 -0.19376,2.17365c-0.0396,0.1506 -0.1543,0.34806 -0.31111,0.34806c-0.19503,0 -0.27031,-0.15798 -0.27031,-0.42709c0,-0.23325 -0.0393,-0.77515 -0.19359,-1.16518c-0.23349,-0.54311 -0.58389,-0.77275 -2.44403,-1.00599c-0.58144,-0.07903 -4.53867,-0.11851 -4.92638,-0.11851c-0.15429,0 -0.19372,0.11851 -0.19372,0.35176l0,8.95642c0,0.23325 0,0.34807 0.19372,0.34807c0.42726,0 4.92638,0 5.70152,-0.07527c0.81456,-0.07902 1.31956,-0.11851 1.66889,-0.46664c0.23203,-0.23325 0.38736,-0.42701 0.50481,-0.42701c0.11596,0 0.19131,0.07896 0.19131,0.27272c0,0.19384 -0.19131,0.73937 -0.27032,1.82318c-0.07775,0.66034 -0.15675,1.90085 -0.15675,2.1317c0,0.27151 -0.07516,0.61966 -0.30859,0.61966c-0.1567,0 -0.23325,-0.11481 -0.23325,-0.30859c0,-0.31107 0,-0.66042 -0.15437,-1.08623c-0.116,-0.46664 -0.42707,-0.85419 -1.74657,-1.00599c-0.92949,-0.1173 -4.57568,-0.15678 -5.1571,-0.15678c-0.19371,0 -0.23331,0.1148 -0.23331,0.23325l0,2.75135c0,1.12697 -0.03947,4.96576 0,5.62618c0.07654,2.20694 0.69872,2.63652 4.07338,2.63652c0.89122,0 2.51925,0 3.41167,-0.35055c0.89249,-0.38761 1.35902,-0.969 1.55161,-2.28598c0.07787,-0.38762 0.15549,-0.50485 0.35059,-0.50485c0.19256,0 0.23197,0.27152 0.23197,0.50485c0,0.23325 -0.27158,2.47975 -0.46656,3.17965c-0.23204,0.8529 -0.58009,0.8529 -1.89967,0.8529c-2.56004,0 -4.53741,-0.07776 -5.93472,-0.11481c-1.43553,-0.07896 -2.32668,-0.07896 -2.83031,-0.07896c-0.07774,0 -0.73685,0 -1.47385,0.03699c-0.65912,0.04197 -1.4342,0.07901 -1.97855,0.07901c-0.34933,0 -0.54316,-0.07901 -0.54316,-0.27279c0,-0.11602 0.07787,-0.27031 0.27151,-0.27031c0.30984,0 0.73698,-0.11722 1.0479,-0.15308c0.66045,-0.11843 0.737,-0.77885 0.8913,-1.74777c0.19382,-1.35655 0.19382,-3.95359 0.19382,-7.137l0,-5.81619l0,0l-0.00011,0l-0.00006,0l-0.00006,0.00002l-0.00003,0l-0.00001,-0.00001z"/><path id="path5714" fill="#373535" fill-rule="nonzero" d="m120.90295,30.53749c0,0.19377 0.07777,0.31228 0.23206,0.42709c0.50483,0.2728 2.24531,0.50484 3.75731,0.50484c0.81222,0 1.74171,-0.03827 2.55391,-0.58138c1.16147,-0.77395 2.05269,-2.51801 2.05269,-5.03116c0,-4.10668 -2.24773,-6.46793 -5.88656,-6.46793c-1.00482,0 -2.08974,0.11474 -2.43661,0.19377c-0.15676,0.07903 -0.2728,0.19377 -0.2728,0.38761l0,10.56715l0,0.00001zm22.90569,12.58282l-5.90881,0c-1.93544,0 -2.78839,-0.19379 -3.63881,-0.65666c-1.47134,-0.77516 -2.71188,-2.36124 -4.64732,-4.83739c-1.43306,-1.78483 -2.94139,-3.91284 -3.67831,-4.8028c-0.15303,-0.15429 -0.23083,-0.19378 -0.46415,-0.19378l-4.33622,-0.07902c-0.1543,0 -0.23205,0.07902 -0.23205,0.2728l0,0.77515c0,3.17227 0,5.72856 0.15551,7.08269c0.11727,0.96893 0.30984,1.58858 1.3541,1.74287c0.46535,0.07654 1.19979,0.1555 1.51086,0.1555c0.23205,0 0.27031,0.15429 0.27031,0.27159c0,0.15429 -0.15429,0.26904 -0.5419,0.26904c-1.85892,0 -4.02637,-0.11475 -4.18192,-0.11475c-0.03833,0 -2.32181,0.11475 -3.36604,0.11475c-0.3494,0 -0.54189,-0.07775 -0.54189,-0.26904c0,-0.1173 0.07526,-0.27159 0.27035,-0.27159c0.30981,0 0.73441,-0.07896 1.04668,-0.1555c0.65665,-0.15429 0.73444,-0.77396 0.88995,-1.74287c0.19257,-1.35414 0.19257,-3.94869 0.19257,-7.12216l0,-5.80759c0,-5.11139 0,-6.04084 -0.07775,-7.0851c-0.07654,-1.12322 -0.27032,-1.66512 -1.39357,-1.81942c-0.27151,-0.03699 -0.85294,-0.07527 -1.1628,-0.07527c-0.11723,0 -0.27032,-0.15799 -0.27032,-0.2728c0,-0.19377 0.15309,-0.26911 0.54311,-0.26911c1.54794,0 3.83139,0.07533 4.02528,0.07533c0.34927,0 3.21416,-0.07533 4.25969,-0.07533c2.16751,0 4.56824,0.19257 6.34819,1.43187c0.8517,0.61717 2.3625,2.20447 2.3625,4.49053c0,2.43659 -1.00844,4.79911 -4.18195,7.50842c2.78835,3.48454 5.1497,6.468 7.12457,8.51698c1.81825,1.85889 2.9427,2.16875 3.79193,2.28598c0.65918,0.11602 3.91281,0.10366 4.10791,0.10366"/><path id="path5718" fill="#373535" fill-rule="nonzero" d="m159.27924,42.71817c-0.46655,-0.22956 -0.50609,-0.34807 -0.50609,-1.23804c0,-1.62934 0.15804,-2.94889 0.19749,-3.49072c0,-0.34935 0.07521,-0.54559 0.26912,-0.54559c0.19376,0 0.31224,0.11851 0.31224,0.38761c0,0.27151 0,0.73807 0.11484,1.20473c0.54184,2.402 3.10307,3.2549 5.39276,3.2549c3.37349,0 5.11633,-1.89837 5.11633,-4.38068c0,-2.36494 -1.2775,-3.49192 -4.30295,-5.74092l-1.55275,-1.16269c-3.6833,-2.75263 -4.88673,-4.77199 -4.88673,-7.05798c0,-3.87833 3.06485,-6.20748 7.56401,-6.20748c1.35657,0 2.71555,0.19377 3.53023,0.38754c0.65671,0.15799 0.92947,0.15799 1.20221,0.15799c0.27158,0 0.34813,0.03955 0.34813,0.23332c0,0.15429 -0.15428,1.24052 -0.15428,3.49072c0,0.50236 -0.03955,0.73568 -0.2728,0.73568c-0.23331,0 -0.2728,-0.15678 -0.30858,-0.42709c-0.03949,-0.38761 -0.31229,-1.27999 -0.50616,-1.62934c-0.23326,-0.38634 -1.35651,-1.62805 -4.42012,-1.62805c-2.48222,0 -4.53867,1.24172 -4.53867,3.56598c0,2.09591 1.04672,3.29815 4.42264,5.58663l0.96651,0.66034c4.15108,2.83038 5.58658,5.12006 5.58658,7.94794c0,1.94162 -0.73564,4.03631 -3.17961,5.62241c-1.43558,0.93314 -3.56844,1.16646 -5.42862,1.16646c-1.58986,0 -3.56975,-0.23331 -4.96573,-0.89366"/><path id="path5722" fill="#373535" fill-rule="nonzero" d="m231.81505,18.78927c-0.11479,0 -0.77519,0.03948 -1.1628,0.15429c-1.00838,0.35176 -1.55275,1.66882 -2.21059,3.49071c-1.51335,4.18813 -4.88687,14.66148 -6.24336,18.34596c-0.89238,2.44404 -1.08627,2.83158 -1.4738,2.83158c-0.34813,0 -0.66039,-0.42709 -1.12569,-1.70708l-6.66916,-18.03488c-1.16525,2.87106 -5.78291,14.933 -7.0209,17.99789c-0.58138,1.39602 -0.8147,1.74407 -1.20224,1.74407c-0.34818,0 -0.62093,-0.34806 -1.31955,-2.59826l-6.0495,-19.54821c-0.54558,-1.74415 -0.89117,-2.17004 -1.78358,-2.48232c-0.46661,-0.15429 -0.80359,-0.19377 -1.03444,-0.19377c-0.15302,0 -0.31099,-0.11481 -0.31099,-0.30859c0,-0.15429 0.23325,-0.23332 0.54184,-0.23332c1.78612,0 3.16853,0.07903 3.51666,0.07903c0.31224,0 1.86261,-0.07903 3.56844,-0.07903c0.46788,0 0.62218,0.07903 0.62218,0.23332c0,0.19377 -0.19385,0.30859 -0.3506,0.30859c-0.27158,0 -0.81218,0 -1.20221,0.19377c-0.23082,0.07903 -0.46414,0.2728 -0.46414,0.69989c0,0.42709 0.27037,1.58986 0.6604,3.06362c0.54184,2.09591 4.03256,14.1949 4.45845,15.55144l0.08022,0l7.13326,-18.42129c0.50235,-1.32076 0.73933,-1.51453 0.93066,-1.51453c0.23207,0 0.5049,0.42709 0.93071,1.55279l6.67165,18.38303l0.15431,0c0.85289,-2.71308 3.91768,-12.25698 5.11998,-16.48337c0.3481,-1.24173 0.38759,-1.62934 0.38759,-2.05266c0,-0.58508 -0.27031,-0.97269 -1.82309,-0.97269c-0.19258,0 -0.30861,-0.19377 -0.30861,-0.30859c0,-0.15429 0.1543,-0.23332 0.58138,-0.23332c1.74411,0 3.17969,0.07902 3.49075,0.07902"/><path id="path5726" fill="#373535" fill-rule="nonzero" d="m232.15729,18.32586c0.22955,0 1.62561,-0.07903 2.94637,-0.07903c0.38754,0 0.46289,0.07903 0.46289,0.23332c0,0.11481 -0.22963,0.23332 -0.54184,0.34806c-0.27037,0.11602 -0.42708,0.2728 -0.42708,0.5456c0,0.46288 0.23697,0.85049 0.46649,1.27751l6.20389,10.2759c0.69983,-1.39482 4.96567,-8.45271 5.58658,-9.54021c0.42709,-0.73568 0.58139,-1.27751 0.58139,-1.70461c0,-0.46657 -0.1543,-0.73816 -0.54184,-0.85418c-0.31232,-0.07896 -0.50615,-0.23325 -0.50615,-0.38754c0,-0.11481 0.19383,-0.19384 0.54436,-0.19384c0.8913,0 2.09344,0.07903 2.36623,0.07903c0.23203,0 2.6736,-0.07903 3.3327,-0.07903c0.23328,0 0.42709,0.07903 0.42709,0.19384c0,0.15429 -0.15428,0.34806 -0.42709,0.34806c-0.38754,0 -1.04797,0.11851 -1.58859,0.42709c-0.65779,0.38754 -0.97025,0.73567 -1.70457,1.62934c-1.12694,1.31698 -5.93471,9.07365 -6.63457,10.47086c-0.58138,1.16276 -0.42709,2.21321 -0.42709,3.29695l0,2.83159c0,0.54431 0,1.93913 0.11848,3.29687c0.07523,0.969 0.30861,1.58986 1.31584,1.74665c0.46782,0.07526 1.24168,0.15429 1.55402,0.15429c0.19371,0 0.27023,0.15429 0.27023,0.27031c0,0.15678 -0.1937,0.27151 -0.5406,0.27151c-1.90215,0 -4.11168,-0.11474 -4.30536,-0.11474c-0.15683,0 -2.32791,0.11474 -3.33766,0.11474c-0.38634,0 -0.54306,-0.07775 -0.54306,-0.27151c0,-0.11602 0.07896,-0.27031 0.27145,-0.27031c0.31233,0 0.69987,-0.07903 1.00845,-0.15429c0.69997,-0.15679 0.93323,-0.77765 1.00856,-1.74665c0.07896,-1.35774 0.07896,-2.75256 0.07896,-3.29687l0,-2.83159c0,-1.78364 -0.23326,-2.44397 -0.73808,-3.37349c-0.27039,-0.50484 -4.92014,-7.80963 -6.05086,-9.57969c-1.73416,-2.71557 -1.62802,-1.9774 -2.24893,-2.40449c-0.50243,-0.31107 -1.16277,-0.46657 -1.43564,-0.46657"/><path id="path5730" fill="#373535" fill-rule="nonzero" d="m193.10464,18.32308c0,1.00848 -0.11481,3.45245 -0.11481,3.83878c0,0.2728 -0.15672,0.42709 -0.31224,0.42709c-0.15306,0 -0.22958,-0.11481 -0.26913,-0.57769l-0.03946,-0.35176c-0.11484,-1.00847 -0.85292,-1.74415 -4.11162,-1.82191l-2.71553,-0.07654l0,13.84315c0,3.18333 0,5.78039 0.1543,7.13693c0.1185,0.969 0.27278,1.58986 1.31955,1.74785c0.4641,0.07406 1.24168,0.15309 1.55029,0.15309c0.23337,0 0.27284,0.15429 0.27284,0.27031c0,0.1567 -0.15434,0.27279 -0.54437,0.27279c-1.8602,0 -4.03377,-0.11609 -4.22768,-0.11609c-0.15428,0 -2.51804,0.11609 -3.52769,0.11609c-0.38634,0 -0.54192,-0.07902 -0.54192,-0.27279c0,-0.11602 0.07657,-0.22963 0.26913,-0.22963c0.30977,0 0.69984,-0.07896 1.00963,-0.15799c0.69867,-0.15429 0.89369,-0.81464 1.00972,-1.78363c0.15308,-1.35654 0.15308,-3.95359 0.15308,-7.13693l0,-13.84315l-3.37349,0.07654c-2.13417,0.03828 -2.94879,0.2716 -3.45114,1.04675c-0.3876,0.58138 -0.42708,0.81463 -0.54312,1.04795c-0.07773,0.26911 -0.19504,0.30859 -0.35054,0.30859c-0.07651,0 -0.23204,-0.07903 -0.23204,-0.26911c0,-0.35176 0.69862,-3.3759 0.73808,-3.6487l4.53499,0.00249l9.77722,0l3.56595,-0.00249l-0.00002,0l0.00002,0.00001z"/><path id="path5734" fill="#373535" fill-rule="nonzero" d="m296.71967,33.60458c0,3.18213 0.03949,5.7792 0.19379,7.13694c0.11478,0.96899 0.19382,1.58985 1.24185,1.74664c0.46646,0.07527 1.24164,0.15429 1.51193,0.15429c0.23456,0 0.30978,0.1543 0.30978,0.27031c0,0.15678 -0.19254,0.27151 -0.58008,0.27151c-1.86273,0 -4.03387,-0.11474 -4.22638,-0.11474c-0.15549,0 -2.36874,0.11474 -3.37347,0.11474c-0.39127,0 -0.54556,-0.07775 -0.54556,-0.27151c0,-0.11602 0.07898,-0.27031 0.27277,-0.27031c0.30859,0 0.6987,-0.07902 1.00848,-0.15429c0.69623,-0.15679 0.81354,-0.8147 0.92947,-1.78612c0.15671,-1.35654 0.15671,-3.84007 0.15671,-7.01844l0,-3.29695c0,-0.15549 -0.07898,-0.19505 -0.19373,-0.19505l-14.23444,0c-0.11728,0 -0.1925,0.03955 -0.1925,0.19505l0,3.29695c0,3.17837 0,5.70016 0.1543,7.0579c0.11475,0.96899 0.23325,1.58986 1.24167,1.74664c0.50244,0.07528 1.23932,0.15429 1.55045,0.15429c0.19366,0 0.27142,0.1543 0.27142,0.27032c0,0.15678 -0.15427,0.27151 -0.54422,0.27151c-1.89853,0 -4.0697,-0.11474 -4.22641,-0.11474c-0.19507,0 -2.36502,0.11474 -3.41299,0.11474c-0.34811,0 -0.54187,-0.07775 -0.54187,-0.27151c0,-0.11602 0.07523,-0.27032 0.26907,-0.27032c0.31229,0 0.73941,-0.07901 1.048,-0.15429c0.66031,-0.15678 0.73563,-0.77765 0.89355,-1.74664c0.19397,-1.35774 0.19397,-3.9548 0.19397,-7.13694l0,-5.81618c0,-5.12005 0,-6.0495 -0.08032,-7.09745c-0.07535,-1.12698 -0.27158,-1.66889 -1.39478,-1.82318c-0.27036,-0.03948 -0.85428,-0.07896 -1.16284,-0.07896c-0.11853,0 -0.27283,-0.15429 -0.27283,-0.2691c0,-0.19377 0.1543,-0.2728 0.54556,-0.2728c1.55042,0 3.72037,0.07903 3.91547,0.07903c0.15665,0 2.32785,-0.07903 3.37582,-0.07903c0.3877,0 0.54199,0.07903 0.54199,0.2728c0,0.11481 -0.1543,0.2691 -0.27026,0.2691c-0.23575,0 -0.46661,0 -0.85657,0.07896c-0.92947,0.19384 -1.12332,0.66041 -1.20105,1.82318c-0.03705,1.04795 -0.03705,2.05515 -0.03705,7.17641l0,0.6962c0,0.19377 0.07507,0.19377 0.19254,0.19377l14.23444,0c0.11475,0 0.19373,0 0.19373,-0.19377l0,-0.6962c0,-5.12125 -0.04205,-6.12845 -0.07898,-7.17641c-0.07776,-1.12698 -0.23203,-1.66889 -1.35522,-1.82318c-0.27283,-0.03948 -0.85428,-0.07896 -1.16644,-0.07896c-0.15433,0 -0.26904,-0.15429 -0.26904,-0.2691c0,-0.19377 0.15424,-0.2728 0.54166,-0.2728c1.51077,0 3.724,0.07903 3.87964,0.07903c0.19263,0 2.36377,-0.07903 3.3721,-0.07903c0.38782,0 0.5838,0.07903 0.5838,0.2728c0,0.11481 -0.15671,0.2691 -0.31097,0.2691c-0.23337,0 -0.42712,0 -0.85428,0.07896c-0.89233,0.19384 -1.08606,0.66041 -1.16263,1.82318c-0.07904,1.04795 -0.07904,1.9774 -0.07904,7.09745l0,5.81618l0,0.00001l0,0.00001z"/><path id="path5738" fill="#373535" fill-rule="nonzero" d="m143.32646,42.56688c0,0 0.48996,-0.00369 1.11092,-0.07902c0.62085,-0.07775 0.92944,-0.77757 1.00838,-1.74656c0.07788,-1.35654 0.07788,-2.75256 0.07788,-3.29695l0,-2.8315c0,-1.78364 -0.23457,-2.44404 -0.73819,-3.37349c-0.27156,-0.50484 -4.88672,-7.83313 -6.04947,-9.57969c-0.81474,-1.24172 -1.62933,-1.9774 -2.24905,-2.40449c-0.50481,-0.31107 -1.16267,-0.46536 -1.43547,-0.46536c-0.19382,0 -0.34932,-0.1555 -0.34932,-0.30979c0,-0.15429 0.11604,-0.23211 0.42581,-0.23211c0.66037,0 3.22035,0.07782 3.37465,0.07782c0.23338,0 1.62936,-0.07782 2.94766,-0.07782c0.38762,0 0.46533,0.07782 0.46533,0.23211c0,0.11602 -0.2308,0.23325 -0.54434,0.34806c-0.27026,0.11602 -0.42455,0.2728 -0.42455,0.5456c0,0.46288 0.23325,0.85042 0.46529,1.27751l6.20502,10.2759c0.69992,-1.39482 4.96327,-8.45279 5.58534,-9.54021c0.42714,-0.73568 0.58144,-1.27758 0.58144,-1.70461c0,-0.46537 -0.1543,-0.73816 -0.54063,-0.85418c-0.31224,-0.07775 -0.50609,-0.23205 -0.50609,-0.38634c0,-0.11602 0.19385,-0.19384 0.54185,-0.19384c0.89368,0 2.09595,0.07782 2.36873,0.07782c0.22963,0 2.67233,-0.07782 3.33272,-0.07782c0.23326,0 0.42709,0.07782 0.42709,0.19384c0,0.15429 -0.15431,0.34806 -0.42709,0.34806c-0.38759,0 -1.04677,0.1173 -1.58987,0.42709c-0.66034,0.38634 -0.96892,0.73568 -1.70337,1.62805c-1.12695,1.31706 -5.93591,9.07492 -6.63458,10.47094c-0.5813,1.16277 -0.427,2.21313 -0.427,3.29695l0,2.8315c0,0.5444 0,1.94041 0.11476,3.29696c0.07901,0.96899 0.31226,1.58986 1.31949,1.74656c0.4653,0.07533 1.24174,0.15429 1.55032,0.15429c0.19507,0 0.2728,0.1543 0.2728,0.27039c0,0.15669 -0.19257,0.27272 -0.5419,0.27272c-1.90085,0 -4.11156,-0.11602 -4.30536,-0.11602c-0.15549,0 -2.38971,0.05183 -3.39943,0.05183"/><path id="path5742" fill="#373535" fill-rule="nonzero" d="m193.11314,18.32308c0,1.00848 -0.11481,3.45245 -0.11481,3.83878c0,0.2728 -0.15797,0.42709 -0.31227,0.42709c-0.15431,0 -0.22957,-0.11481 -0.26912,-0.57769l-0.03946,-0.35176c-0.11604,-1.00847 -0.85414,-1.74415 -4.1116,-1.82191l-2.71677,-0.07654l0,13.84315c0,3.18333 0,5.78039 0.15552,7.13693c0.11734,0.969 0.27162,1.58986 1.31955,1.74785c0.46289,0.07406 1.2417,0.15309 1.55034,0.15309c0.23332,0 0.27159,0.15429 0.27159,0.27031c0,0.1567 -0.15309,0.27279 -0.54309,0.27279c-1.86021,0 -4.03384,-0.11609 -4.22769,-0.11609c-0.15549,0 -2.51926,0.11609 -3.52776,0.11609c-0.38762,0 -0.5419,-0.07902 -0.5419,-0.27279c0,-0.11602 0.07655,-0.22963 0.2691,-0.22963c0.3098,0 0.69992,-0.07896 1.0085,-0.15799c0.69859,-0.15429 0.89366,-0.81464 1.00966,-1.78363c0.1543,-1.35654 0.1543,-3.95359 0.1543,-7.13693l0,-13.84315l-3.37465,0.07654c-2.1342,0.03828 -2.94888,0.2716 -3.45126,1.04675c-0.38754,0.58138 -0.42708,0.81463 -0.54184,1.04795c-0.07904,0.26911 -0.19504,0.30859 -0.35054,0.30859c-0.07654,0 -0.23335,-0.07903 -0.23335,-0.26911c0,-0.35176 0.69865,-3.3759 0.73819,-3.6487l4.53619,0.00249l9.77591,0l3.56725,-0.00249l0.00002,0l0,0.00001z"/><path id="path5746" fill="#373535" fill-rule="nonzero" d="m271.83176,18.32308c0,1.00848 -0.11472,3.45245 -0.11472,3.83878c0,0.2728 -0.15805,0.42709 -0.31235,0.42709c-0.1543,0 -0.22952,-0.11481 -0.26904,-0.57769l-0.03955,-0.35176c-0.11594,-1.00847 -0.85413,-1.74415 -4.11154,-1.82191l-2.71686,-0.07654l0,13.84315c0,3.18333 0,5.78039 0.1543,7.13693c0.11862,0.969 0.27289,1.58986 1.32074,1.74785c0.46292,0.07406 1.24182,0.15309 1.54919,0.15309c0.23447,0 0.2728,0.15429 0.2728,0.27031c0,0.1567 -0.15427,0.27279 -0.54312,0.27279c-1.8602,0 -4.03381,-0.11609 -4.22885,-0.11609c-0.15427,0 -2.5181,0.11609 -3.52655,0.11609c-0.38763,0 -0.54196,-0.07902 -0.54196,-0.27279c0,-0.11602 0.07538,-0.22963 0.26917,-0.22963c0.30859,0 0.69858,-0.07896 1.00848,-0.15799c0.69864,-0.15429 0.89368,-0.81464 1.00961,-1.78363c0.15433,-1.35654 0.15433,-3.95359 0.15433,-7.13693l0,-13.84315l-3.37347,0.07654c-2.13538,0.03828 -2.94997,0.2716 -3.45241,1.04675c-0.38753,0.58138 -0.42706,0.81463 -0.54182,1.04795c-0.07906,0.26911 -0.19504,0.30859 -0.35185,0.30859c-0.07642,0 -0.23206,-0.07903 -0.23206,-0.26911c0,-0.35176 0.69867,-3.3759 0.7382,-3.6487l4.53619,0.00249l9.77588,0l3.56726,-0.00249l0,0.00001z"/><path id="path5750" fill="#373535" fill-rule="nonzero" d="m230.69772,19.49843l1.47136,-1.17264c0,0 -0.91222,0.04565 -1.71944,0.04565c-0.80728,0 -1.53058,-0.04565 -1.53058,-0.04565l0.73807,1.44664c0.14441,-0.20861 0.2679,-0.29374 0.47275,-0.34806c0.13829,-0.03579 0.39128,-0.02102 0.56784,0.07406"/><path id="path5754" fill="#373535" fill-rule="nonzero" d="m64.57693,28.6514l-8.38489,0c-0.13326,0 -0.22089,-0.08762 -0.13326,-0.30858l3.86346,-11.85829c0.22102,-0.65665 0.4419,-0.65665 0.66039,0l4.17204,11.85829c0.04442,0.17532 0.04442,0.30858 -0.17773,0.30858m4.36588,0.52337l-6.99867,-18.22135c-0.52833,-1.36271 -0.70238,-1.57991 -0.96776,-1.57991c-0.26291,0 -0.43695,0.26285 -0.96524,1.71326l-9.96729,27.26779c-0.79117,2.19588 -1.66883,3.8647 -3.69067,4.13004c-0.34933,0.04324 -0.9653,0.08521 -1.27261,0.08521c-0.21848,0 -0.39381,0.09131 -0.39381,0.26414c0,0.26294 0.26176,0.35424 0.83198,0.35424c2.06385,0 4.47948,-0.13327 4.96328,-0.13327c0.48512,0 2.37116,0.13327 3.42649,0.13327c0.39501,0 0.65797,-0.09131 0.65797,-0.35424c0,-0.17284 -0.13337,-0.26414 -0.43823,-0.26414l-0.43944,0c-0.74801,0 -1.67003,-0.39379 -1.67003,-1.2751c0,-0.78622 0.21974,-1.84037 0.61344,-2.94016l2.63653,-7.77511c0.0889,-0.21847 0.22102,-0.34806 0.43949,-0.34806l9.44024,0c0.22094,0 0.30978,0.08881 0.39742,0.26285l0.06297,0.17034c3.56969,9.55505 7.24433,23.42653 28.88107,26.45437l0.12464,0.01115c-17.04498,-3.08465 -21.45895,-17.68811 -25.67179,-27.95533"/><path id="path5758" fill="#373535" fill-rule="nonzero" d="m143.92424,50.03229c-19.67042,0 -28.85149,6.78021 -44.64482,7.37394c22.57854,-0.47154 28.0183,-4.5004 44.64482,-4.5004c17.65852,0 46.29515,7.48748 46.29515,7.48748c0,0 -25.7211,-10.36103 -46.29515,-10.36103"/><path id="path5762" fill="none" stroke="#373535" stroke-miterlimit="4" stroke-width=".654" d="m0,14.1999c7.33938,-7.03447 37.09185,-7.03447 44.64361,0l0,17.33259c-2.07379,21.19238 -22.18232,29.49328 -22.32183,29.54022c-0.14074,0.04565 -20.22707,-8.31823 -22.32178,-29.5797l0,-17.29311z"/><path id="path5766" fill="#fffbcd" fill-rule="nonzero" d="m0,14.1999c7.33938,-7.03447 37.09185,-7.03447 44.64361,0l0,17.33259c-2.07379,21.19238 -22.18232,29.49328 -22.32183,29.54022c-0.14074,0.04565 -20.22707,-8.31823 -22.32178,-29.5797l0,-17.29311z"/><path id="path5770" fill="none" stroke="#373535" stroke-miterlimit="4" stroke-width=".654" d="m0,14.1999c7.33938,-7.03447 37.09185,-7.03447 44.64361,0l0,17.33259c-2.07379,21.19238 -22.18232,29.49328 -22.32183,29.54022c-0.14074,0.04565 -20.22707,-8.31823 -22.32178,-29.5797l0,-17.29311z"/><path id="path5774" fill="#77c14f" fill-rule="nonzero" d="m22.35945,28.36798l18.75081,15.23298c-6.32099,12.07429 -18.65577,17.45358 -18.76437,17.49057c-0.10867,0.03579 -12.42982,-5.07312 -18.79162,-17.48809l18.80517,-15.23547l0.00001,0.00001z"/><path id="path5778" fill="none" stroke="#373535" stroke-miterlimit="4" stroke-width=".607" d="m22.35945,28.36798l18.75081,15.23298c-6.32099,12.07429 -18.65577,17.45358 -18.76437,17.49057c-0.10867,0.03579 -12.42982,-5.07312 -18.79162,-17.48809l18.80517,-15.23547l0.00001,0.00001z"/><path id="path5782" fill="#952d2e" fill-rule="nonzero" d="m12.68802,14.38726c0.50115,-0.24319 0.62338,-0.0617 0.62338,-0.0617c0,0 0.04816,0.43078 -0.06051,0.41843c-0.34806,-0.05312 -1.11332,0.04934 -1.11332,0.04934c0,0 0.0493,-0.16168 0.55045,-0.40607m8.31697,9.30568c0.09143,-0.34934 0.07287,-0.87023 -0.17153,-1.08991c-0.2444,-0.22466 -1.32944,-0.50115 -1.32944,-0.50115c-0.26043,-0.59374 1.42202,0.03579 1.42202,0.03579c0.0555,-0.92575 -1.14424,-1.13686 -1.77744,-0.91957c-1.43431,1.93544 -3.40799,0.1222 -3.40799,-0.54063c-0.12837,-2.38106 -1.92558,-3.61291 -2.53902,-3.86718c-0.61229,-0.25306 -1.09741,-0.49994 -1.09741,-0.49994c0,0 0.90972,0.36539 1.70222,0.13704c0.48626,-0.14194 1.5651,0.89117 1.7552,1.10845c-0.01115,-0.07654 -0.06539,-1.29853 -0.01604,-1.37755c-0.31359,-0.10246 -1.04799,0.02961 -1.38984,-0.15549c-0.10993,-0.0495 -0.17165,-0.13206 -0.12965,-0.26059c0,0 1.18498,0.21478 1.64785,0.12837c0.49494,-0.09507 0.85536,-0.33209 0.70975,-0.64557c-0.02719,0.36539 -0.52219,0.52337 -1.04177,0.4246c-0.52092,-0.10246 -1.18618,-0.41843 -1.18618,-0.41843c0,0 0.51959,-0.93562 1.28738,-0.33329c0,-0.43817 0.06787,-0.85659 0.18883,-0.96523c0.29128,-0.09877 0.60981,-0.27778 0.60981,-0.27778c-0.90363,-0.28877 -1.80094,0.29133 -2.00092,0.16544c-0.19991,-0.12469 -0.20366,-0.23701 -0.58138,-0.23701c-0.48632,0 -2.16866,0.69868 -2.16866,0.69868c-1.65406,0.09501 -2.16262,-1.21588 -2.16262,-1.21588c-0.64923,2.22428 1.18738,2.18112 1.18738,2.18112c-0.61344,0.08882 -1.16761,1.0356 -1.16761,1.0356c0.48506,-0.30361 1.19727,-0.22466 1.07383,-0.20492c-0.47023,0.08641 -0.72698,0.99861 -0.63935,0.90722c0.29002,-0.31348 0.71342,-0.31966 0.71342,-0.28756c0,0.33947 -0.42829,2.75383 -0.30738,3.02287c0.25555,0.574 0.85301,0.969 0.8776,1.57261c-1.99465,1.9774 -4.57815,-1.47633 -1.88845,-4.11407c-3.27347,-4.64361 -6.36306,-3.18341 -7.33696,-3.2537c0.82824,0.67639 2.34278,3.58692 -0.12097,4.70773c1.88363,0.48511 1.8984,3.1315 1.24422,4.09432c1.89099,-0.1222 3.45248,1.45033 3.59935,2.20206c1.16889,-0.33947 3.04264,-1.74784 4.21279,-1.38493c-0.30858,0.05063 -1.18492,1.48739 -1.18492,1.48739c-2.27738,3.87954 -4.94971,3.90914 -5.24106,3.21422c-0.17653,-0.51847 0.78502,-1.41455 0.3703,-2.95996c0,0 0.46903,-0.14194 1.16774,0.89246c0,0 0.24928,-0.42218 0.04436,-0.82706c-0.97391,-1.90824 -3.82392,-2.15264 -4.04367,-1.74407c0.73814,0.10856 0.85415,0.83068 0.85415,1.47994c-0.04816,0.50853 -0.22337,1.44415 -0.07407,1.66512c0.33697,-1.07139 1.37381,-1.31209 1.37381,-1.31209c0.03459,1.37749 -1.98109,1.81693 -1.61699,3.84617c0.09879,0.62704 0.41478,1.11214 0.92208,1.44792c1.21958,0.50732 2.42673,0.81959 4.41777,-0.19136c0,0 -0.25675,0.27031 -0.44811,1.39729c0,0 -0.63941,-0.08512 -1.33185,0.28636c0.95661,0.10984 0.83685,0.03458 1.00351,0.38634c0.63941,1.33808 -0.20492,1.4306 0.03827,1.89227c0,0.24442 -0.22095,-0.38881 -0.26911,-0.19377c-0.44184,0.45422 -1.8453,0.09748 -1.97741,0.75044c0.15062,-0.05922 1.36892,-0.44803 2.07499,0.4518c-0.29255,1.03928 0.8257,1.79102 0.19498,2.68346c-0.19498,0.24441 1.07884,-0.72461 1.07884,-0.72461c-0.04816,-0.57769 0.07528,-1.13067 -0.24072,-1.68856l0.32962,0.02345c0.62325,0.58757 1.38863,0.7949 1.26514,1.80954c0.48759,-0.21727 0.66165,-0.49128 0.6851,-0.99861c-0.09493,-0.50725 -0.56161,-0.64182 -0.78135,-0.97879c0.21974,-0.19377 0.96897,-0.15179 1.33927,0.5764c0.31485,-0.23942 0.12223,-0.70229 0.17045,-1.03807c-0.31732,-0.72582 -1.2664,-0.38882 -1.87254,-0.65296c-1.17136,-0.17154 -0.19744,-0.64926 -0.41732,-1.39729c-0.07275,-1.1874 1.3641,-1.22936 1.99724,-1.98109c-0.33824,-1.26026 -0.74548,-1.67998 -0.40737,-2.18354c-0.04448,0.08641 -0.18389,0.43327 0.10366,0.9467c0.33329,0.60112 1.52683,0.20123 1.52683,0.20123c0.19142,0.78872 -1.03678,3.26727 -0.41472,3.30923c0.00621,-1.11334 2.45765,-1.62188 3.79692,-1.91073l-0.1593,0.42829c-0.14808,0.43575 0,0.74434 0.21968,1.12948c0.11602,-1.00109 0.15062,-1.18501 0.47035,-1.44544c0.80358,-1.01337 1.97741,-1.31956 2.97591,-2.14035c0.2679,-0.19506 0.77893,-0.26414 0.82582,-0.62952c-0.34071,-0.21721 -0.82582,-0.06907 -1.24055,-0.11851c-0.38881,0.14443 -0.68009,0.72581 -1.09481,0.62583c0.43695,-0.50732 0.87633,-0.99115 1.46017,-1.20594c-0.17033,-0.45798 -0.70721,-0.07285 -0.94914,-0.36539c-0.36662,-0.09259 -0.43949,0.41474 -0.58511,0.65545c-0.2679,0.33947 -0.56039,0.93931 -0.99977,0.91589c0.14808,-0.40856 0.51339,-0.69861 0.78129,-1.0344l0.21848,-0.53694c-1.75152,-0.43327 -0.87513,1.57133 -1.67998,2.22307c-0.41472,0.04686 -0.85042,0.36412 -1.24049,0.16905c0.14694,-0.86647 0.46288,-1.66384 0.41351,-2.60692c-0.41351,-1.03928 -1.85031,-0.24063 -2.63033,-0.24063c0.90105,-1.06159 3.18704,-2.22187 3.71405,-4.62508c-0.98126,-0.32343 -1.29479,-0.75173 -1.65894,-1.40348c0.94799,1.30101 2.05517,1.16646 3.02786,1.48243c0,0 -1.05292,0.33329 -1.127,0.79866c1.34669,-0.70607 1.4319,-0.16793 2.18602,-0.31725c0.84679,-0.16168 1.32944,0.51471 1.64791,1.35534c0.05183,-0.04324 0.09258,-0.31356 0.13085,-0.75918c-0.20492,-0.74427 -0.61849,-1.00102 -0.61849,-1.00102c0.56287,-0.31725 1.07389,0.32832 1.7071,0.80973m-5.53229,-4.73372c0.23698,0.39628 0.32462,0.54439 0.38392,1.21091c0,0 1.51454,-1.5861 2.49098,-3.9203l0.33698,-0.05183c1.10343,0.55425 1.49711,-0.17155 1.49711,-0.17155c-1.10597,0.50484 -1.4219,-0.66651 -1.30943,-0.88997c0.24314,-0.87392 0.45052,-1.76389 2.05884,-1.46149c-0.05671,-0.63563 -0.41225,-0.63193 -0.93805,-0.63193c-0.42852,-0.02343 -0.89984,0.29992 -1.23313,0.7023l0.0555,-0.67021c0.29388,-0.26293 0.90972,-0.40118 1.0824,-0.71224c-0.53798,-0.19746 -0.84427,0.06049 -1.37995,0.22835c-0.69124,0.25057 -0.5666,0.68633 -0.83553,1.00229c0,0 -0.25054,-0.57393 0.41846,-1.04426c0,0 -0.6135,-0.34686 -0.97392,0.38144c-0.56161,1.07507 0.11957,1.517 0.26658,2.33662c-0.27151,0.848 -0.62224,1.19358 -1.9207,3.69187"/><path id="path5786" fill="#952d2e" fill-rule="nonzero" d="m31.40888,14.74715c-0.10861,0.01356 -0.05919,-0.41843 -0.05919,-0.41843c0,0 0.12217,-0.18149 0.62325,0.0617c0.50115,0.2444 0.55058,0.40607 0.55058,0.40607c0,0 -0.76525,-0.10246 -1.11464,-0.04934m7.31968,10.62764c-0.20613,0.40486 0.04321,0.82827 0.04321,0.82827c0.69979,-1.0356 1.16888,-0.89366 1.16888,-0.89366c-0.41592,1.54542 0.54677,2.4415 0.3703,2.95996c-0.29255,0.69613 -2.96489,0.66531 -5.24221,-3.21422c0,0 -0.87639,-1.43806 -1.18377,-1.4874c1.17015,-0.3629 3.04269,1.04547 4.21279,1.38494c0.14693,-0.75172 1.7071,-2.32425 3.59941,-2.20206c-0.65545,-0.96283 -0.63947,-3.60922 1.24416,-4.09304c-2.46374,-1.12208 -0.95046,-4.03263 -0.12096,-4.7078c-0.97512,0.06908 -4.06344,-1.39112 -7.33691,3.25249c2.68837,2.63774 0.10614,6.09147 -1.88858,4.11527c0.02345,-0.60361 0.62218,-0.99861 0.87639,-1.57381c0.12223,-0.26904 -0.30738,-2.6834 -0.30738,-3.02287c0,-0.03209 0.42466,-0.02592 0.71348,0.28756c0.0889,0.0926 -0.16785,-0.82081 -0.63941,-0.90722c-0.12217,-0.01854 0.58878,-0.09748 1.07389,0.20492c0,0 -0.55299,-0.94549 -1.16647,-1.0356c0,0 1.83547,0.04317 1.18618,-2.18112c0,0 -0.50723,1.31088 -2.1625,1.21589c0,0 -1.68118,-0.69869 -2.16751,-0.69869c-0.37772,0 -0.38266,0.11233 -0.58143,0.23701c-0.20112,0.12589 -1.09729,-0.45422 -2.0008,-0.16544c0,0 0.31841,0.179 0.60975,0.27778c0.1197,0.10864 0.18762,0.52827 0.18762,0.96523c0.76899,-0.60233 1.28864,0.33329 1.28864,0.33329c0,0 -0.66533,0.31597 -1.18618,0.41843c-0.51972,0.09997 -1.01586,-0.05801 -1.04177,-0.4246c-0.14573,0.31348 0.2148,0.5505 0.70848,0.64557c0.46414,0.08641 1.64906,-0.12837 1.64906,-0.12837c0.04075,0.12837 -0.02097,0.21102 -0.12959,0.26165c-0.34185,0.1839 -1.07758,0.05183 -1.3911,0.15429c0.05063,0.07903 -0.00367,1.30222 -0.01604,1.37755c0.19136,-0.21727 1.26887,-1.24918 1.75647,-1.10724c0.79243,0.22715 1.70215,-0.13825 1.70215,-0.13825c0,0 -0.48512,0.24689 -1.09861,0.49995c-0.61223,0.25426 -2.4107,1.4874 -2.53775,3.86717c0,0.66298 -1.975,2.47606 -3.40799,0.54078c-0.63321,-0.21742 -1.83306,-0.00618 -1.77876,0.91957c0,0 1.68366,-0.62952 1.42202,-0.03579c0,0 -1.08498,0.27649 -1.32824,0.50115c-0.24434,0.21968 -0.26283,0.74057 -0.17153,1.08991c0.63321,-0.48141 1.14423,-1.12698 1.7059,-0.80974c0,0 -0.41225,0.25675 -0.61843,1.00229c0.03827,0.44435 0.08022,0.71345 0.13206,0.75791c0.31726,-0.84063 0.80111,-1.5158 1.64785,-1.35534c0.75296,0.14939 0.83812,-0.38881 2.18601,0.31724c-0.07401,-0.46536 -1.1282,-0.79866 -1.1282,-0.79866c0.97271,-0.31597 2.08114,-0.18142 3.02914,-1.48243c-0.36537,0.65175 -0.67768,1.08125 -1.659,1.40347c0.52706,2.40321 2.81186,3.56349 3.71417,4.62508c-0.78014,0 -2.21693,-0.79745 -2.63165,0.24063c-0.0481,0.94308 0.2679,1.74166 0.41472,2.60692c-0.39121,0.19506 -0.82576,-0.12092 -1.24049,-0.16785c-0.80479,-0.65296 0.07166,-2.65755 -1.68118,-2.22428l0.21981,0.53694c0.26778,0.33578 0.63321,0.62704 0.78003,1.0344c-0.43938,0.02344 -0.73192,-0.57641 -0.99983,-0.91589c-0.14441,-0.24071 -0.21716,-0.74803 -0.58504,-0.65544c-0.24072,0.29255 -0.77767,-0.0926 -0.9492,0.36539c0.58505,0.21479 1.02454,0.69861 1.46017,1.20594c-0.41339,0.09997 -0.70474,-0.48012 -1.09354,-0.62583c-0.41478,0.04943 -0.89984,-0.09869 -1.24055,0.11851c0.04696,0.3666 0.55792,0.43575 0.82576,0.62952c0.99736,0.82209 2.17118,1.12818 2.97603,2.14035c0.31847,0.26046 0.353,0.44434 0.47024,1.44665c0.21848,-0.38634 0.36663,-0.69493 0.21981,-1.13067l-0.16051,-0.4283c1.33921,0.29004 3.79066,0.79617 3.7968,1.91073c0.6221,-0.04197 -0.60482,-2.52051 -0.41351,-3.30922c0,0 1.19239,0.3999 1.52689,-0.19994c0.28761,-0.51471 0.14688,-0.86157 0.10367,-0.94798c0.33823,0.50356 -0.07034,0.92326 -0.40731,2.18353c0.63326,0.75172 2.06873,0.7949 1.99718,1.9811c-0.21969,0.74802 0.75416,1.22574 -0.41726,1.39849c-0.60728,0.26294 -1.55648,-0.07278 -1.87243,0.65176c0.0481,0.33698 -0.14573,0.79865 0.17033,1.03808c0.37024,-0.72822 1.11953,-0.77018 1.33801,-0.57641c-0.21848,0.33698 -0.68637,0.47154 -0.78135,0.97879c0.02344,0.50732 0.19876,0.78133 0.68624,0.99861c-0.12337,-1.01465 0.64188,-1.222 1.26525,-1.80834l0.3295,-0.02343c-0.31594,0.55667 -0.19245,1.10965 -0.2406,1.68735c0,0 1.27262,0.96885 1.07752,0.72573c-0.62952,-0.89366 0.4888,-1.64546 0.1951,-2.68339c0.70728,-0.90105 1.92558,-0.5123 2.07608,-0.45302c-0.13206,-0.65175 -1.53545,-0.29623 -1.97862,-0.75044c-0.0481,-0.19505 -0.2691,0.43818 -0.2691,0.19378c0.24319,-0.46167 -0.59981,-0.55299 0.03948,-1.89227c0.16665,-0.35176 0.04677,-0.2765 1.00229,-0.38513c-0.69244,-0.3727 -1.33185,-0.28635 -1.33185,-0.28635c-0.19148,-1.12819 -0.44697,-1.3985 -0.44697,-1.3985c1.9899,1.01217 3.19711,0.69869 4.41777,0.19136c0.50729,-0.33578 0.82323,-0.82089 0.92214,-1.44665c0.36295,-2.03051 -1.6528,-2.46996 -1.61711,-3.84745c0,0 1.03557,0.24071 1.37259,1.31209c0.14942,-0.22096 -0.02592,-1.15659 -0.0728,-1.66512c0,-0.64926 0.11596,-1.3701 0.85427,-1.47994c-0.21968,-0.40856 -3.06981,-0.16416 -4.04366,1.74407m-12.9396,-10.23513c0.11234,0.22345 -0.20372,1.39481 -1.30973,0.88997c0,0 0.39242,0.72453 1.49717,0.17034l0.33571,0.05432c0.9777,2.33292 2.49218,3.91901 2.49218,3.91901c0.05804,-0.66652 0.14682,-0.81464 0.38386,-1.20963c-1.29853,-2.49957 -1.65026,-2.84514 -1.92058,-3.69315c0.14561,-0.8196 0.82817,-1.26153 0.26664,-2.33661c-0.36174,-0.72829 -0.97391,-0.38144 -0.97391,-0.38144c0.669,0.47033 0.4184,1.04426 0.4184,1.04426c-0.27031,-0.31597 -0.14561,-0.75172 -0.83565,-1.00229c-0.53574,-0.16785 -0.8418,-0.4246 -1.38121,-0.22835c0.1728,0.31107 0.78997,0.44932 1.08251,0.71224l0.05684,0.67021c-0.33329,-0.40238 -0.80485,-0.72573 -1.23434,-0.7023c-0.52471,0 -0.88013,-0.00369 -0.9369,0.63193c1.60832,-0.3024 1.81572,0.58757 2.0589,1.46149"/><path id="path5790" fill="#fff" fill-rule="nonzero" d="m20.93326,50.59009c1.35657,0.77147 1.84283,0.31597 2.62544,0.00739c1.09246,-0.42709 9.97964,-0.23325 9.97964,-0.23325l-3.67336,-11.26953l-1.32203,-0.93441c0,0 -2.39828,-1.3985 -4.2375,-1.3985c-1.8403,0 -2.05142,1.15041 -2.05142,1.15041c0,0 -0.21113,-1.15041 -2.05021,-1.15041c-1.84169,0 -4.261,1.38743 -4.261,1.38743l-1.29473,0.97261l-3.69814,11.21031c0,0 9.96362,0.24561 9.98333,0.25796"/><path id="path5794" fill="none" stroke="#373535" stroke-miterlimit="4" stroke-width=".241" d="m20.93326,50.59009c1.35657,0.77147 1.84283,0.31597 2.62544,0.00739c1.09246,-0.42709 9.97964,-0.23325 9.97964,-0.23325l-3.67336,-11.26953l-1.32203,-0.93441c0,0 -2.39828,-1.3985 -4.2375,-1.3985c-1.8403,0 -2.05142,1.15041 -2.05142,1.15041c0,0 -0.21113,-1.15041 -2.05021,-1.15041c-1.84169,0 -4.261,1.38743 -4.261,1.38743l-1.29473,0.97261l-3.69814,11.21031c0,0 9.96362,0.24561 9.98333,0.25796l-0.00002,-0.00001z"/><path id="path5798" fill="none" stroke="#373535" stroke-miterlimit="4" stroke-width=".181" d="m15.94257,38.14905c0,0 -2.40195,10.38453 -2.44023,10.36472c-0.34571,0.63082 -2.55143,1.77873 -2.55143,1.77873"/><path id="path5802" fill="none" stroke="#373535" stroke-miterlimit="4" stroke-width=".361" d="m22.23083,37.61468l0,11.80895"/><path id="path5806" fill="none" stroke="#373535" stroke-miterlimit="4" stroke-width=".181" d="m28.59961,38.28355c0,0 2.36869,10.19069 2.4045,10.16726c0.4962,0.79 2.55632,1.78363 2.55632,1.78363m-2.55632,-1.75651c0,0 -8.48108,-1.86755 -8.74772,1.39609l-0.00253,0.06787c-0.27025,-3.26854 -8.75146,-1.40098 -8.75146,-1.40098"/><path id="path5810" fill="#373535" fill-rule="nonzero" d="m23.71831,50.82793c0.02959,-0.02343 10.07096,-0.28146 10.10188,-0.28146c0,-0.05922 -0.58023,-0.32832 -0.58023,-0.32463c-4.4658,0 -8.43913,-1.29356 -9.65738,0.1185c-0.02965,0 -1.32818,-0.52947 -1.32818,-0.52947c0,0 -1.26887,0.52089 -1.30099,0.52089c-1.21457,-1.40717 -5.1879,-0.11361 -9.65624,-0.11361c0,-0.01236 -0.57769,0.26173 -0.57769,0.32094c0.02719,0 10.11543,0.24809 10.14629,0.27649c0.7233,0.64437 2.12556,0.66042 2.85254,0.01236"/><path id="path5814" fill="#9ea0a3" fill-rule="nonzero" d="m17.85615,47.06601c-1.30221,0.00618 -1.88978,0.15799 -3.3784,0.46658c0.02471,-0.02841 1.02454,-4.67563 1.02454,-4.64731c0.76652,-0.2789 1.76882,-0.48013 2.8007,-0.36162c0,0 -0.47523,4.53001 -0.44684,4.54236"/><path id="path5818" fill="#9ea0a3" fill-rule="nonzero" d="m21.31297,45.10246c-0.51838,-0.30738 -1.93661,-0.47274 -2.76117,-0.20121c0.00367,0 0.61344,-7.28256 0.61344,-7.25545c0.44805,-0.08641 1.70957,-0.2777 2.29215,0.30489l-0.14441,7.15177l-0.00001,0z"/><path id="path5822" fill="#9ea0a3" fill-rule="nonzero" d="m18.33808,42.27421c-1.24916,-0.1259 -1.91196,0.09748 -2.75623,0.31477c0.02833,-0.02471 0.79491,-4.0104 0.79491,-3.982c0.6986,-0.38017 1.45529,-0.65544 2.38846,-0.88499c0,0 -0.39869,4.55223 -0.42714,4.55223"/><path id="path5826" fill="#9ea0a3" fill-rule="nonzero" d="m21.30417,47.49226c-0.76157,-0.29503 -1.74658,-0.45918 -2.9488,-0.45918c-0.00126,-0.0025 0.18509,-1.89348 0.18509,-1.90214c0.79985,-0.33571 2.38846,-0.07528 2.76491,0.2062c0,0 -0.00367,2.15144 -0.00121,2.15512"/><path id="path5830" fill="#9ea0a3" fill-rule="nonzero" d="m26.20591,43.85652c0.63321,-0.10984 2.32307,0.01974 3.01545,0.38882c-0.02839,-0.02712 -1.18739,-5.54714 -1.18739,-5.51874c-0.79865,-0.45173 -1.51453,-0.77146 -2.44644,-1.00471c0,0 0.58998,6.13463 0.61837,6.13463"/><path id="path5834" fill="#9ea0a3" fill-rule="nonzero" d="m23.06226,39.79527c0.27646,-0.27649 1.53304,-0.46168 2.3206,-0.21351c-0.00253,0 -0.1555,-1.92684 -0.16171,-1.93552c-0.44932,-0.08633 -1.63917,-0.25425 -2.15889,0.26542c0,0 0.00741,1.88729 0,1.88359"/><path id="path5838" fill="#9ea0a3" fill-rule="nonzero" d="m23.10066,47.50454c1.07758,-0.5456 1.8861,-0.4308 2.93656,-0.44434c-0.02471,-0.02719 -0.6678,-7.2974 -0.6678,-7.26909c-0.5431,-0.18142 -1.62935,-0.25667 -2.28847,0.20123c0,0 0.04816,7.52454 0.01971,7.5122"/><path id="path5842" fill="#9ea0a3" fill-rule="nonzero" d="m26.52999,47.06042c0.84065,0 1.82933,0.10616 3.35128,0.3654c-0.02718,-0.0284 -0.62585,-2.95131 -0.62585,-2.92418c-0.63568,-0.3666 -2.65016,-0.5172 -3.01425,-0.40606c0,0 0.26169,2.96484 0.28882,2.96484"/><path id="path5846" fill="none" stroke="#373535" stroke-miterlimit="4" stroke-width=".654" d="m0,14.20243c7.33938,-7.03447 37.09185,-7.03447 44.64361,0l0,17.33259c-2.07379,21.19238 -22.18232,29.4933 -22.32183,29.54022c-0.14074,0.04565 -20.22707,-8.31823 -22.32178,-29.5797l0,-17.29311zm3.55488,29.40318l18.80517,-15.2354l18.75081,15.23292"/></g></svg>