<?xml version="1.0" encoding="UTF-8" standalone="no"?>
<!-- Created with Inkscape (http://www.inkscape.org/) -->

<svg
   width="106.02712mm"
   height="22.115959mm"
   viewBox="0 0 106.02712 22.115959"
   version="1.1"
   id="svg85660"
   inkscape:version="1.1.1 (3bf5ae0d25, 2021-09-20)"
   sodipodi:docname="limbus-logo-light.svg"
   xmlns:inkscape="http://www.inkscape.org/namespaces/inkscape"
   xmlns:sodipodi="http://sodipodi.sourceforge.net/DTD/sodipodi-0.dtd"
   xmlns="http://www.w3.org/2000/svg"
   xmlns:svg="http://www.w3.org/2000/svg">
  <sodipodi:namedview
     id="namedview85662"
     pagecolor="#ffffff"
     bordercolor="#666666"
     borderopacity="1.0"
     inkscape:pageshadow="2"
     inkscape:pageopacity="0.0"
     inkscape:pagecheckerboard="0"
     inkscape:document-units="mm"
     showgrid="false"
     fit-margin-top="0"
     fit-margin-left="0"
     fit-margin-right="0"
     fit-margin-bottom="0"
     inkscape:zoom="4.0668163"
     inkscape:cx="83.726427"
     inkscape:cy="59.874846"
     inkscape:window-width="1920"
     inkscape:window-height="1014"
     inkscape:window-x="2560"
     inkscape:window-y="0"
     inkscape:window-maximized="1"
     inkscape:current-layer="layer1" />
  <defs
     id="defs85657" />
  <g
     inkscape:label="Layer 1"
     inkscape:groupmode="layer"
     id="layer1"
     transform="translate(-7.966475,-94.14662)">
    <g
       id="g85809"
       transform="translate(-88.852515,-101.64577)">
      <rect
         style="fill:#007bff;fill-opacity:1;stroke-width:0.250498"
         id="rect55032-06-2"
         width="21.171499"
         height="20.708559"
         x="97.156647"
         y="196.40369" />
      <rect
         style="fill:#007bff;fill-opacity:1;stroke-width:0.487331"
         id="rect55032-0"
         width="79.082008"
         height="20.982553"
         x="122.53431"
         y="196.4095" />
      <path
         id="rect43-7-8"
         style="fill:#ffffff;fill-opacity:1;fill-rule:evenodd;stroke-width:0.264583"
         d="m 121.41646,195.79239 v 22.11596 h 81.42965 v -22.11596 z m 70.74348,3.51141 c 3.63503,0 5.63003,1.63937 5.64978,4.62246 H 195.044 c -0.0988,-1.46192 -1.14577,-2.25206 -3.02256,-2.25206 -1.54093,0 -2.48925,0.69163 -2.48925,1.77818 0,1.04705 0.6126,1.46203 2.72645,1.87689 l 2.25206,0.4346 c 2.66701,0.51365 3.81269,1.69893 3.81269,3.97082 0,2.94358 -2.19257,4.66225 -5.90662,4.66225 -3.67454,0 -5.78876,-1.67908 -5.96656,-4.76095 h 2.88458 c 0.0988,1.54093 1.22452,2.39003 3.23959,2.39003 1.79776,0 2.90422,-0.73071 2.90422,-1.9358 0,-1.16558 -0.73074,-1.71909 -2.7063,-2.09444 l -2.01538,-0.39481 c -2.92383,-0.55316 -4.04988,-1.63973 -4.04988,-3.87212 0,-2.80529 1.99567,-4.42505 5.4529,-4.42505 z m -66.22076,0.23669 h 2.96312 v 11.93261 h 6.89467 v 2.46961 h -9.85779 z m 11.73468,0 h 2.96313 v 14.40222 h -2.96313 z m 23.43009,0 h 6.4208 c 1.54094,0 2.54823,0.31601 3.39772,1.04696 0.80998,0.7112 1.3038,1.73856 1.3038,2.74609 0,1.22485 -0.55319,2.05488 -1.97559,2.96364 1.63972,0.94827 2.39055,2.07403 2.39055,3.49643 0,1.16558 -0.55289,2.37066 -1.42213,3.10162 -0.86925,0.73096 -1.97597,1.04748 -3.63544,1.04748 h -6.47971 z m 2.96365,2.46961 v 3.25974 h 3.21995 c 1.3829,0 2.09393,-0.55313 2.09393,-1.63969 0,-1.0668 -0.71103,-1.62005 -2.09393,-1.62005 z m -15.29106,1.08675 c 1.32363,0 2.39057,0.57273 2.90421,1.58028 0.82974,-1.10633 1.75812,-1.58028 3.12126,-1.58028 2.13361,0 3.39773,1.2247 3.39773,3.29903 v 7.54683 h -2.76573 v -7.11224 c 0,-0.84949 -0.57268,-1.38285 -1.5012,-1.38285 -1.18533,0 -1.89652,0.79006 -1.89652,2.09393 v 6.40116 h -2.76572 v -7.11224 c 0,-0.84949 -0.57321,-1.38285 -1.50172,-1.38285 -1.18534,0 -1.89652,0.7703 -1.89652,2.09393 v 6.40116 h -2.76573 v -10.66808 h 2.74609 v 1.32343 c 0.90875,-1.10632 1.699,-1.50121 2.92385,-1.50121 z m 26.11675,0.17778 h 2.76572 v 6.85488 c 0,1.28411 0.59285,1.91668 1.77819,1.91668 1.36314,0 2.23242,-0.83009 2.23242,-2.09445 v -6.67711 h 2.76573 v 10.66808 h -2.76573 v -1.26452 c -0.79022,1.20509 -1.75816,1.71876 -3.20032,1.71876 -2.29165,0 -3.57601,-1.32368 -3.57601,-3.69435 z m -10.82569,4.46484 v 3.73363 h 3.53621 c 1.44216,0 2.19263,-0.63241 2.19263,-1.85726 0,-1.2446 -0.75047,-1.87637 -2.19263,-1.87637 z" />
      <path
         id="rect24481-3-4"
         style="fill:#ffffff;fill-opacity:1;stroke-width:0.209386"
         d="m 96.81899,195.79239 v 22.11596 h 22.11596 v -22.11596 z m 11.05307,1.0113 10.05159,7.66672 -3.82975,12.41838 -12.41836,0.008 -3.845244,-12.41268 z m -0.10955,2.13528 -8.033103,6.14433 3.075783,9.93014 9.64333,-0.007 c -0.0777,-0.2522 -0.06,-0.59374 0.17571,-1.08159 0.0625,-0.12938 0.11919,-0.23524 0.12609,-0.23564 0.007,-4e-4 0.1798,0.005 0.3793,0.0522 l 2.67374,-8.66975 z m -4.01061,4.32945 c 0.13979,-0.001 0.27602,0.0169 0.38964,0.0543 0.33938,0.11214 0.36678,0.1351 1.36787,1.13585 0.51173,0.51153 0.93793,0.92966 0.94723,0.92966 0.009,0 0.0758,-0.0398 0.1478,-0.0889 0.16574,-0.11313 0.34211,-0.1961 0.41755,-0.19637 0.0476,-1.6e-4 0.18101,0.12299 0.71933,0.66301 0.72957,0.73188 0.70349,0.69357 0.61082,0.88573 -0.0614,0.12725 -0.27822,0.4472 -0.416,0.61392 -0.0599,0.0725 -0.11539,0.14513 -0.12299,0.16123 -0.009,0.0192 0.54992,0.59671 1.61644,1.66915 1.26575,1.2728 1.64254,1.66353 1.68465,1.74873 0.0581,0.11765 0.10335,0.29854 0.10335,0.41289 0,0.0632 0.0704,0.14102 0.68058,0.75138 0.37419,0.3743 0.71573,0.73459 0.75913,0.80098 0.0728,0.11132 0.0792,0.13398 0.0796,0.28578 6e-4,0.18152 -0.0483,0.30738 -0.15916,0.41082 -0.14123,0.13152 -0.36371,0.18435 -0.55346,0.13074 -0.0556,-0.0156 -0.13883,-0.0594 -0.18552,-0.0971 -0.0467,-0.0377 -0.38504,-0.37036 -0.75189,-0.73949 -0.61056,-0.61448 -0.67321,-0.67127 -0.74052,-0.67127 -0.11145,0 -0.33046,-0.0625 -0.4408,-0.12558 -0.06,-0.0343 -0.72895,-0.68758 -1.71152,-1.67225 -0.88705,-0.88893 -1.62255,-1.61967 -1.63453,-1.62367 -0.0119,-0.004 -0.11273,0.0658 -0.22428,0.15503 -0.23314,0.18655 -0.48063,0.35351 -0.59376,0.40101 -0.16859,0.0707 -0.14522,0.0878 -0.86144,-0.63149 -0.51384,-0.51603 -0.66148,-0.67622 -0.66146,-0.71882 2e-5,-0.0725 0.10473,-0.28902 0.2129,-0.43925 l 0.0868,-0.12092 -0.91312,-0.92191 c -0.60358,-0.60953 -0.94295,-0.96931 -1.00149,-1.06091 -0.0487,-0.0762 -0.11549,-0.21943 -0.14831,-0.31833 -0.0516,-0.15554 -0.0595,-0.21404 -0.0584,-0.43253 0.001,-0.22678 0.008,-0.27135 0.0692,-0.43874 0.15647,-0.42665 0.45797,-0.71933 0.87591,-0.85059 0.12669,-0.0398 0.27,-0.0611 0.4098,-0.062 z m 3.93671,4.31809 -0.49816,0.4992 -0.49816,0.49816 1.62316,1.62832 c 1.14974,1.15349 1.65161,1.64212 1.72134,1.67742 0.0697,0.0351 0.14953,0.0524 0.27337,0.0594 l 0.17466,0.009 0.74363,0.74208 c 0.40903,0.40801 0.76348,0.75317 0.78755,0.76687 0.0244,0.0145 0.10679,0.0226 0.18603,0.0186 0.11022,-0.005 0.1587,-0.0189 0.21549,-0.061 0.15561,-0.11542 0.21089,-0.35685 0.11627,-0.5085 -0.0249,-0.0399 -0.37088,-0.39891 -0.76843,-0.79737 l -0.72243,-0.7245 v -0.14262 c 2e-4,-0.30495 0.10538,-0.18142 -1.71462,-2.01384 z m 0.66197,0.90898 1.2237,1.22938 c 0.90377,0.90801 1.23333,1.25295 1.25987,1.31775 0.0242,0.0591 0.0347,0.1402 0.0315,0.24857 l -0.005,0.16071 0.76895,0.77308 c 0.73115,0.73514 0.76895,0.77719 0.76895,0.85369 0,0.16133 -0.0747,0.23616 -0.23513,0.23616 -0.0755,0 -0.11945,-0.04 -0.84698,-0.76842 l -0.76739,-0.76843 h -0.17002 c -0.12827,0 -0.19188,-0.0114 -0.26148,-0.046 -0.0605,-0.0302 -0.4248,-0.37878 -1.0604,-1.01544 -0.53234,-0.53323 -0.9679,-0.97381 -0.9679,-0.98082 0,-0.006 0.0337,-0.0297 0.0744,-0.0517 0.1338,-0.0724 0.1489,-0.17999 0.0863,-0.601 -0.0407,-0.27336 -0.0222,-0.43943 0.0589,-0.53743 z" />
    </g>
  </g>
</svg>
