<?xml version="1.0" encoding="UTF-8" standalone="no"?>
<!-- Created with Inkscape (http://www.inkscape.org/) -->

<svg
   width="106.02712mm"
   height="22.115961mm"
   viewBox="0 0 106.02712 22.115961"
   version="1.1"
   id="svg85045"
   inkscape:version="1.1.1 (3bf5ae0d25, 2021-09-20)"
   sodipodi:docname="limbus-logo.svg"
   xmlns:inkscape="http://www.inkscape.org/namespaces/inkscape"
   xmlns:sodipodi="http://sodipodi.sourceforge.net/DTD/sodipodi-0.dtd"
   xmlns="http://www.w3.org/2000/svg"
   xmlns:svg="http://www.w3.org/2000/svg">
  <sodipodi:namedview
     id="namedview85047"
     pagecolor="#ffffff"
     bordercolor="#666666"
     borderopacity="1.0"
     inkscape:pageshadow="2"
     inkscape:pageopacity="0.0"
     inkscape:pagecheckerboard="0"
     inkscape:document-units="mm"
     showgrid="false"
     inkscape:zoom="1.0167041"
     inkscape:cx="-122.45451"
     inkscape:cy="264.08864"
     inkscape:window-width="1920"
     inkscape:window-height="1014"
     inkscape:window-x="2560"
     inkscape:window-y="0"
     inkscape:window-maximized="1"
     inkscape:current-layer="layer1"
     fit-margin-top="0"
     fit-margin-left="0"
     fit-margin-right="0"
     fit-margin-bottom="0" />
  <defs
     id="defs85042" />
  <g
     inkscape:label="Layer 1"
     inkscape:groupmode="layer"
     id="layer1"
     transform="translate(-3.151767,-4.171765)">
    <g
       id="g26944"
       transform="translate(-57.714902,-93.198373)"
       inkscape:export-filename="/home/keo7/rect37248.png"
       inkscape:export-xdpi="168.95361"
       inkscape:export-ydpi="168.95361">
      <path
         id="rect43"
         style="fill:#007bff;fill-opacity:1;fill-rule:evenodd;stroke-width:0.264583"
         d="M 85.464134,97.370138 V 119.4861 H 166.89379 V 97.370138 Z m 70.743486,3.511412 c 3.63503,0 5.63003,1.63936 5.64978,4.62246 h -2.76572 c -0.0988,-1.46192 -1.14577,-2.25206 -3.02256,-2.25206 -1.54093,0 -2.48925,0.69163 -2.48925,1.77818 0,1.04705 0.6126,1.46203 2.72645,1.87689 l 2.25206,0.4346 c 2.66701,0.51365 3.81269,1.69893 3.81269,3.97082 0,2.94358 -2.19257,4.66225 -5.90662,4.66225 -3.67454,0 -5.78876,-1.67908 -5.96656,-4.76095 h 2.88458 c 0.0988,1.54093 1.22452,2.39003 3.23959,2.39003 1.79776,0 2.90422,-0.73071 2.90422,-1.9358 0,-1.16558 -0.73074,-1.71909 -2.7063,-2.09444 l -2.01538,-0.39481 c -2.92383,-0.55316 -4.04988,-1.63973 -4.04988,-3.87212 0,-2.80529 1.99567,-4.42505 5.4529,-4.42505 z m -66.220765,0.23668 h 2.963125 v 11.93261 h 6.894671 v 2.46961 h -9.857796 z m 11.734685,0 h 2.96313 v 14.40222 h -2.96313 z m 23.43009,0 h 6.4208 c 1.54094,0 2.54823,0.31601 3.39772,1.04696 0.80998,0.7112 1.3038,1.73856 1.3038,2.74609 0,1.22485 -0.55319,2.05488 -1.97559,2.96364 1.63972,0.94827 2.39055,2.07403 2.39055,3.49643 0,1.16558 -0.55289,2.37066 -1.42213,3.10162 -0.86925,0.73096 -1.97597,1.04748 -3.63544,1.04748 h -6.47971 z m 2.96365,2.46962 v 3.25974 h 3.21995 c 1.3829,0 2.09393,-0.55313 2.09393,-1.63969 0,-1.0668 -0.71103,-1.62005 -2.09393,-1.62005 z m -15.29106,1.08675 c 1.32363,0 2.39057,0.57273 2.90421,1.58027 0.82974,-1.10632 1.75812,-1.58027 3.12126,-1.58027 2.13361,0 3.39773,1.22469 3.39773,3.29902 v 7.54683 h -2.76573 v -7.11223 c 0,-0.84949 -0.57268,-1.38286 -1.5012,-1.38286 -1.18533,0 -1.89652,0.79006 -1.89652,2.09393 v 6.40116 h -2.76572 v -7.11223 c 0,-0.84949 -0.57321,-1.38286 -1.50172,-1.38286 -1.18534,0 -1.89652,0.77031 -1.89652,2.09393 v 6.40116 h -2.76573 v -10.66808 h 2.74609 v 1.32343 c 0.90875,-1.10631 1.699,-1.5012 2.92385,-1.5012 z m 26.11675,0.17777 h 2.76572 v 6.85488 c 0,1.28411 0.59285,1.91668 1.77819,1.91668 1.36314,0 2.23242,-0.83009 2.23242,-2.09445 v -6.67711 h 2.76573 v 10.66808 h -2.76573 v -1.26452 c -0.79022,1.20509 -1.75816,1.71876 -3.20032,1.71876 -2.29165,0 -3.57601,-1.32368 -3.57601,-3.69435 z m -10.82569,4.46484 v 3.73363 h 3.53621 c 1.44216,0 2.19263,-0.63241 2.19263,-1.85726 0,-1.2446 -0.75047,-1.87637 -2.19263,-1.87637 z" />
      <path
         id="rect24481"
         style="fill:#007bff;fill-opacity:1;stroke-width:0.209386"
         d="M 60.866669,97.370138 V 119.4861 H 82.982627 V 97.370138 Z m 11.053072,1.011309 10.051586,7.666713 -3.829745,12.41837 -12.418361,0.008 -3.845246,-12.41268 z m -0.109553,2.135273 -8.033102,6.14433 3.075781,9.93014 9.643337,-0.007 c -0.07768,-0.2522 -0.05998,-0.59374 0.175702,-1.08159 0.06248,-0.12938 0.11919,-0.23524 0.12609,-0.23564 0.0065,-4e-4 0.179803,0.005 0.379304,0.0522 l 2.673737,-8.66975 z m -4.01061,4.32945 c 0.13979,-0.001 0.276016,0.0169 0.389641,0.0543 0.339384,0.11214 0.366776,0.1351 1.367875,1.13585 0.51173,0.51153 0.937929,0.92966 0.947229,0.92966 0.0092,0 0.07579,-0.0398 0.147794,-0.0889 0.16574,-0.11313 0.342117,-0.1961 0.417547,-0.19637 0.04761,-1.6e-4 0.18102,0.12299 0.719336,0.66301 0.729572,0.73188 0.703484,0.69357 0.610814,0.88573 -0.06136,0.12725 -0.27822,0.4472 -0.415994,0.61392 -0.05988,0.0725 -0.11539,0.14513 -0.122991,0.16123 -0.0091,0.0192 0.549918,0.59671 1.61644,1.66915 1.265745,1.2728 1.642541,1.66353 1.684652,1.74873 0.05812,0.11765 0.103352,0.29854 0.103352,0.41289 0,0.0632 0.07041,0.14102 0.68058,0.75138 0.374184,0.3743 0.715727,0.73459 0.759126,0.80098 0.07283,0.11132 0.07918,0.13398 0.07958,0.28578 6.03e-4,0.18152 -0.04834,0.30738 -0.159163,0.41082 -0.141227,0.13152 -0.36371,0.18435 -0.553456,0.13074 -0.05557,-0.0156 -0.138829,-0.0594 -0.185517,-0.0971 -0.04669,-0.0377 -0.385046,-0.37036 -0.751893,-0.73949 -0.610556,-0.61448 -0.673214,-0.67127 -0.740524,-0.67127 -0.111445,0 -0.330462,-0.0625 -0.440799,-0.12558 -0.05997,-0.0343 -0.728948,-0.68758 -1.711523,-1.67225 -0.887042,-0.88893 -1.622547,-1.61967 -1.634527,-1.62367 -0.01195,-0.004 -0.112728,0.0658 -0.224274,0.15503 -0.23314,0.18655 -0.480632,0.35351 -0.593765,0.40101 -0.16859,0.0707 -0.145224,0.0878 -0.861443,-0.63149 -0.51384,-0.51603 -0.661472,-0.67622 -0.661459,-0.71882 2.1e-5,-0.0725 0.104728,-0.28902 0.212905,-0.43925 l 0.08682,-0.12092 -0.913122,-0.92191 c -0.603578,-0.60953 -0.942951,-0.96931 -1.00149,-1.06091 -0.04871,-0.0762 -0.115491,-0.21943 -0.148313,-0.31833 -0.05156,-0.15554 -0.05949,-0.21404 -0.05839,-0.43253 0.0011,-0.22678 0.0079,-0.27135 0.06925,-0.43874 0.156472,-0.42665 0.457972,-0.71933 0.875916,-0.85059 0.126688,-0.0398 0.269999,-0.0611 0.409792,-0.062 z m 3.936711,4.31808 -0.49816,0.4992 -0.49816,0.49816 1.623155,1.62832 c 1.149742,1.15349 1.651612,1.64212 1.721343,1.67742 0.06965,0.0351 0.149531,0.0524 0.273367,0.0594 l 0.174667,0.009 0.743625,0.74208 c 0.40903,0.40801 0.763487,0.75317 0.787548,0.76687 0.02438,0.0145 0.106794,0.0226 0.186034,0.0186 0.110217,-0.005 0.158702,-0.0189 0.215493,-0.061 0.155612,-0.11542 0.210891,-0.35685 0.116271,-0.5085 -0.02491,-0.0399 -0.370883,-0.39891 -0.76843,-0.79737 l -0.722437,-0.7245 v -0.14262 c 2.02e-4,-0.30495 0.105389,-0.18142 -1.714621,-2.01384 z m 0.661975,0.90899 1.223698,1.22938 c 0.903763,0.90801 1.233323,1.25295 1.259871,1.31775 0.02415,0.0591 0.03472,0.1402 0.03152,0.24857 l -0.0047,0.16071 0.768946,0.77308 c 0.731152,0.73514 0.768945,0.77719 0.768945,0.85369 0,0.16133 -0.07472,0.23616 -0.235127,0.23616 -0.07554,0 -0.119449,-0.04 -0.846976,-0.76842 l -0.767395,-0.76843 H 74.42703 c -0.128273,0 -0.191881,-0.0114 -0.261483,-0.046 -0.06047,-0.0302 -0.424801,-0.37878 -1.060399,-1.01544 -0.532342,-0.53323 -0.967902,-0.97381 -0.967902,-0.98082 0,-0.006 0.03373,-0.0297 0.07442,-0.0517 0.1338,-0.0724 0.1489,-0.17999 0.0863,-0.601 -0.04065,-0.27336 -0.02216,-0.43943 0.05891,-0.53743 z" />
    </g>
  </g>
</svg>
